PathFileType	4	(X/Y/Z)	Walk6.trc
DataRate	CameraRate	NumFrames	NumMarkers	Units	OrigDataRate	OrigDataStartFrame	OrigNumFrames
200.000000	200.000000	4	59	mm	200.000000	428	490
Frame#	Times		LFHD		RFHD		CLAV		RBack		RACR1		RUA1		RFA1		RWRR		RWRU		RCAR		LACR1		LUA1		LFA1		LWRU		RTH1		RTH3		LTH3		LTH2		LTH4		LLFC		LWRR		LTH1		T10		RElbow		LASI		C7		RTH2		LTB2		LToe		LBHD		LTB4		RTH4		STRN		LMMAL		RTB1		LMT1		RTB2		RBHD		LTB1		LCAL		LCAR		LElbow		LTB3		RPSI		RElbowM		LElbowM		RLFC		LMT5		LLMAL		LPSI		RTB4		RMT1		RASI		RTB3		RCAL		RMT5		RLMAL		RToe		RMMAL
			X1	Y1	Z1	X2	Y2	Z2	X3	Y3	Z3	X4	Y4	Z4	X5	Y5	Z5	X6	Y6	Z6	X7	Y7	Z7	X8	Y8	Z8	X9	Y9	Z9	X10	Y10	Z10	X11	Y11	Z11	X12	Y12	Z12	X13	Y13	Z13	X14	Y14	Z14	X15	Y15	Z15	X16	Y16	Z16	X17	Y17	Z17	X18	Y18	Z18	X19	Y19	Z19	X20	Y20	Z20	X21	Y21	Z21	X22	Y22	Z22	X23	Y23	Z23	X24	Y24	Z24	X25	Y25	Z25	X26	Y26	Z26	X27	Y27	Z27	X28	Y28	Z28	X29	Y29	Z29	X30	Y30	Z30	X31	Y31	Z31	X32	Y32	Z32	X33	Y33	Z33	X34	Y34	Z34	X35	Y35	Z35	X36	Y36	Z36	X37	Y37	Z37	X38	Y38	Z38	X39	Y39	Z39	X40	Y40	Z40	X41	Y41	Z41	X42	Y42	Z42	X43	Y43	Z43	X44	Y44	Z44	X45	Y45	Z45	X46	Y46	Z46	X47	Y47	Z47	X48	Y48	Z48	X49	Y49	Z49	X50	Y50	Z50	X51	Y51	Z51	X52	Y52	Z52	X53	Y53	Z53	X54	Y54	Z54	X55	Y55	Z55	X56	Y56	Z56	X57	Y57	Z57	X58	Y58	Z58	X59	Y59	Z59

428	2.14	588.19	1427.1	-91.873	578.41	1416.2	4.0432	569.2	1172.6	-55.588	379.99	1137	62.563	497.55	1205	123.62	513.29	1069.6	210.75	600.98	834.48	253.35	633.47	739.79	221.08	595.59	733.14	282.21	652.67	689.6	276.65	496.98	1189.4	-246.38	507.21	1021.2	-309.35	518.33	811.09	-354.32	496.39	701.49	-377.66	495.4	625	173.05	472.55	457.75	133.92	564.89	485.04	-200.15	591.89	588.81	-199.88	544.78	566.12	-228.71	606.16	403.09	-162.15	547.01	699.47	-340.11	524.55	647.31	-250.35	343.34	1055.7	-42.094	526.56	943.3	248.97	561.37	801.94	-197.6	428.59	1255.1	-61.084	537.96	539.73	134.3	622.11	218.12	-149.98	778.25	32.739	-82.436	467.37	1340.2	-123.71	639.4	220.5	-90.341	482.24	541.65	156.2	623.64	1067	-49.232	622.57	74.742	-42.643	407.44	264.44	65.681	728.87	36.734	-58.738	309.32	234.62	93.994	454.7	1333.6	8.9122	639.13	308.01	-95.474	561.13	42	-77.763	531.56	651.67	-386.6	470.3	906.23	-318.28	646.45	137.71	-86.672	310.06	827.03	21.143	473.42	902.99	183.86	444.4	887.24	-251.01	426.73	376.93	115.83	687.12	18.891	-141.52	603.75	58.018	-121.04	301.66	827.02	-85.73	340.52	210.7	47.156	249.61	40.565	-16.1	569.87	815.4	117.12	279.69	154.91	29.425	148	167.35	2.8242	219.03	47.378	69.474	196.55	141.42	53.923	288.58	27.157	22.401	221.85	142.41	-24.891
429	2.145	594.06	1427.8	-92.424	584.17	1417	3.488	574.93	1173.5	-56.154	385.63	1138.2	62.006	503.25	1206.2	122.94	518.41	1070.8	210.18	605.24	835.18	252.91	637.38	740.22	220.79	599.31	733.87	281.85	656.13	689.85	276.41	503.31	1190.4	-246.91	514.22	1022.1	-309.71	525.82	811.9	-354.25	504.5	702.16	-377.41	503.02	625.47	173.06	483.14	457.66	134.78	569.63	485.73	-200.67	597.22	589.35	-200.36	549.99	566.94	-229.2	610.32	403.28	-162.54	554.88	700.44	-339.51	530.21	648.25	-250.79	349.05	1056.5	-42.636	531.26	944.28	248.2	567.69	803.3	-197.81	434.31	1255.9	-61.814	547.08	540.85	134.64	624.33	217.95	-150.21	778.34	32.024	-82.163	473.2	1341.1	-124.38	641.36	220.2	-90.483	491.34	541.81	156.58	629.28	1067.8	-50.321	622.76	74.714	-42.64	417.41	264.74	67.285	728.86	36.232	-58.575	318.43	237.03	94.875	460.39	1334.5	8.2659	642.14	307.72	-95.718	561.15	42.128	-77.853	539.9	652.31	-385.88	477.28	907.01	-318.67	647.48	137.35	-86.666	316.08	827.1	21.392	478.41	904.22	182.63	451.05	888.14	-251.52	437.91	376.73	116.94	687.09	18.93	-141.68	603.95	58.03	-121.06	307.32	827.8	-85.685	349.6	212.19	48.543	254.48	42.404	-15.063	575.84	816.02	116.13	287.85	157.4	30.677	156.83	172.9	2.8458	223.5	50.352	69.815	204.11	145.53	54.311	291.73	27.339	23.823	230.25	145.79	-24.178
430	2.15	599.94	1428.6	-92.956	589.93	1417.9	2.9538	580.63	1174.4	-56.677	391.26	1139.3	61.486	508.9	1207.3	122.31	523.54	1072	209.65	609.49	835.91	252.49	641.29	740.69	220.49	603.05	734.62	281.49	659.6	690.11	276.12	509.59	1191.3	-247.39	521.29	1023.1	-310.03	533.36	812.76	-354.17	512.7	702.88	-377.17	510.57	626	173.07	493.71	457.67	135.59	574.14	486.34	-201.19	602.42	589.77	-200.89	555.03	567.68	-229.68	614.27	403.4	-162.93	562.82	701.47	-338.9	535.74	649.12	-251.22	354.74	1057.4	-43.143	535.94	945.28	247.47	573.91	804.69	-198.06	439.98	1256.8	-62.502	556.17	542.06	134.99	626.39	217.77	-150.43	778.38	31.492	-81.924	479.02	1341.9	-125	643.2	219.91	-90.625	500.4	542.04	156.92	634.89	1068.7	-51.358	622.91	74.699	-42.643	427.57	265.14	68.783	728.81	35.851	-58.429	327.81	239.42	95.711	466.06	1335.5	7.6547	644.99	307.42	-95.956	561.14	42.232	-77.939	548.32	653.02	-385.16	484.28	907.81	-319.06	648.42	136.99	-86.669	322.07	827.25	21.606	483.38	905.49	181.45	457.73	889.05	-252.02	449.14	376.63	117.96	687.04	19.014	-141.82	604.1	58.045	-121.08	312.96	828.63	-85.642	358.95	213.73	49.863	260.1	44.367	-13.84	581.77	816.64	115.19	296.33	159.87	31.908	165.95	178.1	2.895	228.67	53.448	70.31	212.05	149.53	54.723	295.71	27.615	25.488	238.97	149.04	-23.469
431	2.155	605.82	1429.4	-93.465	595.69	1418.7	2.4417	586.31	1175.3	-57.156	396.86	1140.4	61	514.49	1208.5	121.71	528.67	1073.2	209.18	613.75	836.66	252.1	645.19	741.18	220.19	606.8	735.39	281.13	663.07	690.38	275.81	515.82	1192.3	-247.83	528.39	1024.1	-310.31	540.95	813.67	-354.09	520.97	703.65	-376.93	518.04	626.58	173.06	504.24	457.79	136.32	578.42	486.86	-201.7	607.49	590.07	-201.44	559.89	568.35	-230.16	618	403.45	-163.32	570.83	702.56	-338.31	541.14	649.93	-251.64	360.43	1058.2	-43.615	540.62	946.3	246.79	580.02	806.1	-198.34	445.59	1257.6	-63.148	565.2	543.36	135.33	628.3	217.58	-150.64	778.39	31.113	-81.72	484.82	1342.8	-125.59	644.92	219.61	-90.775	509.38	542.35	157.21	640.47	1069.6	-52.333	623.04	74.692	-42.654	437.9	265.65	70.155	728.74	35.57	-58.3	337.46	241.77	96.495	471.71	1336.5	7.0787	647.68	307.11	-96.2	561.11	42.317	-78.022	556.83	653.77	-384.45	491.3	908.64	-319.45	649.28	136.65	-86.69	328.02	827.48	21.784	488.34	906.78	180.34	464.42	889.96	-252.53	460.4	376.64	118.89	686.99	19.125	-141.94	604.19	58.064	-121.1	318.57	829.52	-85.601	368.55	215.31	51.094	266.51	46.416	-12.432	587.65	817.26	114.3	305.13	162.3	33.093	175.33	182.9	2.9608	234.59	56.626	70.967	220.38	153.38	55.153	300.58	28.004	27.388	248.01	152.13	-22.777
